<svg xmlns="http://www.w3.org/2000/svg" fill="none" viewBox="0 0 179 36">
  <path fill="url(#paint0_linear)" fill-rule="evenodd" d="M0 11.37a4.97 4.97 0 0 1 2.43-4.13L8.6 3.68c.81-.4 1.62-.65 2.52-.65.8 0 1.7.25 2.51.65l6.17 3.56a4.9 4.9 0 0 1 2.43 4.13v.48c0 .4-.24.65-.56.49l-3.33-1.94-4.14-2.43c-.73-.4-1.87-.81-3-.9a7.72 7.72 0 0 0-3 .9L4.06 10.4.73 12.34c-.32.16-.57 0-.57-.49v-.48H0zm32.54 13.26a4.97 4.97 0 0 1-2.43 4.13l-6.17 3.56c-.81.4-1.62.65-2.52.65-.8 0-1.7-.25-2.51-.65l-6.17-3.56a4.9 4.9 0 0 1-2.43-4.13v-.48c0-.4.24-.65.56-.49l9.01 5.18c.49.24.9.4 1.46.4a2.6 2.6 0 0 0 1.46-.4l9.01-5.18c.33-.16.57 0 .57.49v.48h.16zM18.66 35.4l.41-.24c.4-.24.4-.57.08-.73l-3.33-1.94-4.13-2.43a8.2 8.2 0 0 1-2.28-2.18 6.53 6.53 0 0 1-.73-3.07v-8.66c0-.4-.32-.49-.73-.32l-.4.24a4.95 4.95 0 0 0-2.36 4.2v7.2c0 .9.25 1.78.65 2.51.4.73 1.06 1.38 1.79 1.86l6.17 3.56c1.54.81 3.24.81 4.86 0zM13.88.61l-.4.24c-.41.24-.41.57-.09.73l9 5.18a2.82 2.82 0 0 1 1.55 2.58v10.44c0 .4.32.49.73.32l.4-.24a4.95 4.95 0 0 0 2.36-4.2V8.52c0-.89-.24-1.77-.65-2.5a5.58 5.58 0 0 0-1.79-1.86L18.83.6C17.2-.2 15.42-.2 13.88.6zm16.3 6.63l-.4-.24c-.4-.24-.73-.08-.73.32v8.66c0 .89-.24 2.02-.73 3.07a8.2 8.2 0 0 1-2.27 2.19l-4.14 2.42-3.33 1.94c-.32.17-.32.57.08.73l.41.25c1.54.8 3.33.8 4.87-.09l6.17-3.56a4.38 4.38 0 0 0 1.78-1.86 5 5 0 0 0 .65-2.5v-7.12c0-1.7-.9-3.24-2.35-4.21zM2.36 28.76l.4.24c.41.24.74.08.74-.32V18.24c0-.56.08-.97.4-1.53.33-.57.65-.81 1.14-1.06l8.93-5.17c.32-.17.32-.57-.08-.73l-.4-.24a4.97 4.97 0 0 0-4.88.08l-6.17 3.56A4.39 4.39 0 0 0 .65 15 5 5 0 0 0 0 17.5v7.12c0 1.7.81 3.16 2.35 4.13z" clip-rule="evenodd"/>
  <path fill="#333" fill-rule="evenodd" d="M86.56 19.22c.4 0 .65-.33.65-.65v-8.31c0-.65-.57-1.21-1.22-1.21h-8.17c-.65 0-1.22.56-1.22 1.2v8.32c0 .4.33.65.65.65h1.38c.32 0 .65-.33.65-.65v-7.5h5.17v7.5c0 .4.33.65.65.65h1.46zm23.22-6.62v-2.42c0-.65-.56-1.21-1.2-1.21h-7.21c-.65 0-1.22.56-1.22 1.2v8.48c0 .32.25.49.49.49h1.62c.24 0 .48-.25.48-.49v-1.53l6.48-3.71c.32-.08.56-.49.56-.81zm-2.67-1.61v1.04l-4.2 2.43v-3.47h4.2zm-50.5 4.11h1.54c.9 0 1.46.57 2.03 1.45l1.21 1.94c.24.4.73.65 1.05.65h1.62c.4 0 .49-.33.24-.65l-1.78-2.82c-.4-.65-1.13-1.54-1.86-1.7.97-.24 1.46-.89 1.86-1.53l1.54-2.83c.24-.4.16-.64-.24-.64H62.2c-.32 0-.73.24-1.05.64L60 11.55C59.45 12.6 58.88 13 58 13h-1.54V9.45c0-.32-.24-.48-.48-.48h-1.62c-.24 0-.49.24-.49.48v9.12c0 .32.25.49.49.49h1.62c.24 0 .48-.25.48-.49.17-1.05.17-2.26.17-3.47zm8.9 2.9c0 .65.57 1.22 1.22 1.22h7.85c.24 0 .49-.25.49-.49v-.97c0-.32-.25-.48-.49-.48h-6.31v-6.13h6.31c.24 0 .49-.25.49-.49V9.7c0-.24-.25-.48-.49-.48h-7.85c-.65 0-1.21.56-1.21 1.21v7.59zm-13.43 0c0 .65-.56 1.22-1.21 1.22h-7.85c-.32 0-.49-.25-.49-.49v-.97c0-.32.25-.48.49-.48h6.31v-2.1h-5.5c-.32 0-.49-.24-.49-.48v-.97c0-.24.25-.49.49-.49h5.5v-2.1h-6.31c-.32 0-.49-.24-.49-.48V9.7c0-.24.25-.48.49-.48h7.85c.65 0 1.21.56 1.21 1.21v7.59zM114.8 11v7.66c0 .32.25.49.49.49h1.62c.24 0 .48-.25.48-.49V11h3.32c.32 0 .49-.25.49-.49v-.97c0-.32-.25-.48-.49-.48h-9.3c-.33 0-.5.24-.5.48v.97c0 .24.25.49.5.49h3.4zM89.31 18c0 .64.57 1.2 1.21 1.2h7.85c.33 0 .49-.24.49-.48v-.97c0-.24-.24-.48-.49-.48h-6.3v-2.1h5.5c.32 0 .48-.24.48-.48v-.97c0-.32-.24-.49-.48-.49h-5.5v-2.1h6.3c.33 0 .49-.24.49-.48V9.7c0-.32-.24-.48-.49-.48h-7.85c-.64 0-1.2.56-1.2 1.21v7.59z" clip-rule="evenodd"/>
  <path fill="url(#paint1_linear)" fill-rule="evenodd" d="M141.75 12.65v-2.4c0-.64-.56-1.2-1.21-1.2h-7.2c-.65 0-1.22.56-1.22 1.2v8.4c0 .33.25.49.49.49h1.62c.24 0 .48-.24.48-.48v-1.52l6.48-3.69c.32-.08.56-.48.56-.8zm-2.67-1.6v1.04l-4.2 2.4v-3.44h4.2zm38.6 8.17c.41 0 .66-.32.66-.64v-8.25c0-.64-.57-1.2-1.22-1.2h-8.17c-.65 0-1.22.56-1.22 1.2v8.25c0 .4.33.64.65.64h1.38c.32 0 .64-.32.64-.64v-7.45h5.18v7.45c0 .4.33.64.65.64h1.46zm-12.62 0c.4 0 .65-.32.65-.64v-8.25c0-.64-.57-1.2-1.22-1.2h-8.17c-.65 0-1.21.56-1.21 1.2v8.25c0 .4.32.64.64.64h1.38c.4 0 .65-.32.65-.64v-7.45h5.18v7.45c0 .4.32.64.64.64h1.46zm-39.66-8.17h5.02c.33 0 .49-.24.49-.48V9.6c0-.32-.25-.48-.49-.48h-6.47c-.65 0-1.22.56-1.22 1.2v8.4c0 .33.25.49.49.49h1.62c.32 0 .48-.24.48-.48.08-3.6.08-2.4.08-7.69zm20.32 6c-.4 0-.65.33-.65.65v.8c0 .32.33.64.65.64h1.7c2.43 0 3.56-1.2 4.2-2.89l2.35-6.56c.09-.32-.08-.64-.48-.64h-1.46c-.32 0-.73.24-.89.64l-1.3 3.6h-.88c-1.22 0-1.95-.64-2.35-1.68l-.81-2a1.1 1.1 0 0 0-.97-.64h-1.54c-.32 0-.57.32-.4.64l1.13 2.56c.89 2.08 2.02 3.04 4.53 3.04h.65c-.32 1.2-.97 1.84-1.94 1.84h-.17c-.4 0-.8-.16-1.21-.16h-.16v.16z" clip-rule="evenodd"/>
  <path fill="#333" fill-rule="evenodd" d="M145.21 22.45a.44.44 0 0 1-.4-.25c0-.08-.09-.16-.17-.16h-.24c-.08 0-.16 0-.16.16 0 .5.4.84.97.84s.97-.34.97-.84c0-.08-.08-.16-.16-.16h-.24c-.08 0-.16.08-.16.16a.44.44 0 0 1-.4.25zm23.5 1c-.16 0-.24.09-.24.26v.25c0 .16.08.25.24.25h1.3v3.09c0 .17.08.25.24.25h.57c.16 0 .24-.08.24-.25v-3.1h1.3c.16 0 .24-.08.24-.24v-.25c0-.17-.08-.25-.24-.25h-3.65zm-67.75 4.18c.17 0 .25-.16.25-.25V23.8c0-.17-.08-.25-.25-.25h-.8c-.17 0-.33.17-.41.25l-1.62 2.92V23.8c0-.17-.17-.25-.25-.25h-.48c-.16 0-.25.08-.25.25v3.6c0 .16.09.24.25.24h.97c.16 0 .32-.16.4-.25l1.46-2.67v2.67c0 .17.17.25.25.25h.48zm-9.56 0c.16 0 .24-.08.24-.25V23.8c0-.17-.08-.25-.24-.25h-.81c-.16 0-.32.17-.4.25l-1.63 2.92V23.8c0-.17-.16-.25-.24-.25h-.48c-.17 0-.25.08-.25.25v3.6c0 .16.08.24.24.24h.98c.16 0 .32-.08.4-.25l1.46-2.67v2.67c0 .17.16.25.24.25h.5zm-1.86-5.18c-.17 0-.33-.08-.33-.25 0-.08-.08-.16-.16-.16h-.24c-.08 0-.16 0-.16.16 0 .5.4.84.97.84s.97-.34.97-.84c0-.08-.08-.16-.16-.16h-.24c-.09 0-.17.08-.17.16-.16.17-.24.25-.48.25zm-8.03 3.01c0 1.59.81 2.17 2.27 2.17s2.27-.58 2.27-2.17c0-1.59-.8-2.17-2.27-2.17-1.46 0-2.27.58-2.27 2.17zm2.27-1.42c.9 0 1.22.5 1.22 1.42 0 .92-.33 1.42-1.22 1.42-.89 0-1.21-.5-1.21-1.42 0-.92.32-1.42 1.21-1.42zm-5.1 1.84c.32 0 .48.17.48.5 0 .33-.16.5-.48.5h-1.62v-1h1.62zm-.16-1.67c.24 0 .4.17.4.42 0 .25-.16.41-.4.41h-1.54v-.83h1.54zM76 27.38c0 .17.08.25.25.25h2.43c.8 0 1.46-.41 1.46-1.25 0-.42-.17-.75-.57-1 .24-.25.4-.5.4-.75 0-.84-.73-1.17-1.45-1.17h-2.27c-.17 0-.25.16-.25.25v3.67zm-6.16-1.75c0 1.59.81 2.17 2.27 2.17s2.27-.58 2.27-2.17c0-1.59-.8-2.17-2.27-2.17-1.46 0-2.27.58-2.27 2.17zm2.27-1.42c.9 0 1.22.5 1.22 1.42 0 .92-.33 1.42-1.22 1.42-.89 0-1.21-.5-1.21-1.42 0-.92.32-1.42 1.21-1.42zm-6.4-.5c-.08-.17-.24-.25-.48-.25h-.57c-.16 0-.25.16-.08.25l1.37 1.75-1.45 1.84c-.09.17-.09.25.08.25h.56c.25 0 .4-.17.49-.25l.9-1.17.88 1.17c.08.17.25.25.49.25h.57c.16 0 .24-.17.08-.25l-1.46-1.84 1.38-1.75c.08-.17.08-.25-.08-.25h-.57c-.24 0-.4.16-.49.25l-.8 1-.82-1zm-5.5 1.17c.07-.34.4-.59.72-.59h.81v1.5h-1.78l.24-.91zm-1.8 2.5c0 .17.09.25.17.25h.57c.16 0 .32-.08.32-.25l.16-.75h2.03v.75c0 .17.08.25.24.25h.57c.16 0 .24-.08.24-.25v-3.67c0-.17-.08-.25-.24-.25h-1.54c-.81 0-1.62.16-1.86 1.17l-.65 2.75zm-1.29-2.42v-1c0-.25-.24-.5-.48-.5H53.8c-.24 0-.49.25-.49.5v3.5c0 .09.08.26.25.26h.64c.08 0 .25-.09.25-.25v-.67l2.59-1.5c0-.09.08-.26.08-.34zm-1.05-.67v.42l-1.7 1V24.3h1.7zm-8.1-.83c-.17 0-.25.08-.25.25v.25c0 .16.08.25.24.25h1.3v3.09c0 .17.08.25.24.25h.57c.16 0 .24-.08.24-.25v-3.1h1.3c.16 0 .24-.08.24-.24v-.25c0-.17-.08-.25-.24-.25h-3.65zm-5.44 3.67c0 .25.25.5.49.5h3.08c.08 0 .24-.08.24-.25v-.41c0-.09-.08-.26-.24-.26h-2.51v-2.5h2.51c.08 0 .24-.09.24-.25v-.42c0-.08-.08-.25-.24-.25h-3.08c-.24 0-.49.25-.49.5v3.34zm135.42-2.17v-1c0-.25-.24-.5-.49-.5h-2.83c-.25 0-.49.25-.49.5v3.5c0 .09.08.26.25.26h.64c.08 0 .25-.09.25-.25v-.67l2.59-1.5c0-.09.08-.26.08-.34zm-1.05-.67v.42l-1.7 1V24.3h1.7zm-67.91 1.59c.32 0 .48.17.48.5 0 .33-.16.5-.48.5h-1.63v-1H109zm-.08-1.67c.24 0 .4.17.4.42 0 .25-.16.41-.4.41h-1.55v-.83h1.55zm-2.6 3.17c0 .17.08.25.25.25h2.43c.8 0 1.45-.41 1.45-1.25 0-.42-.16-.75-.56-1 .32-.25.4-.5.4-.75 0-.84-.73-1.17-1.46-1.17h-2.26c-.17 0-.25.16-.25.25v3.67zm9.73.25c.16 0 .24-.16.24-.25V23.8c0-.17-.08-.25-.24-.25h-.81c-.17 0-.33.17-.4.25l-1.63 2.92V23.8c0-.17-.16-.25-.24-.25h-.49c-.16 0-.24.08-.24.25v3.6c0 .16.08.24.24.24h.97c.17 0 .33-.16.4-.25l1.47-2.67v2.67c0 .17.08.25.24.25h.49zm4.37-3.34c.4 0 .65.09.65.42 0 .33-.24.42-.65.42h-.65c-.16 0-.24.16-.24.25v.25c0 .17.08.25.24.25h.73c.4 0 .65.08.65.42 0 .33-.24.41-.65.41h-.89c-.24 0-.48-.08-.56-.33-.09-.25-.25-.33-.41-.33h-.32c-.09 0-.33.08-.33.33 0 .75.81 1.17 1.54 1.17h1.06c.97 0 1.53-.33 1.53-1.25 0-.34-.08-.67-.4-.84.24-.17.4-.5.4-.83 0-1-.72-1.26-1.62-1.26h-.89c-.73 0-1.54.42-1.54 1.17 0 .25.25.34.33.34h.32c.16 0 .33-.09.4-.25.17-.25.41-.34.65-.34h.65zm3.24 1.25c0 1.6.81 2.18 2.27 2.18s2.27-.59 2.27-2.18c0-1.58-.8-2.17-2.27-2.17-1.45 0-2.27.59-2.27 2.17zm2.27-1.42c.9 0 1.22.5 1.22 1.42 0 .92-.33 1.43-1.22 1.43-.89 0-1.21-.5-1.21-1.43 0-.91.32-1.42 1.21-1.42zm6.65 1.76c.32 0 .49.17.49.5 0 .33-.17.5-.5.5h-1.61v-1h1.62zm-.08-1.67c.24 0 .4.17.4.42 0 .25-.16.41-.4.41h-1.54v-.83h1.54zm-2.6 3.17c0 .17.09.25.25.25h2.43c.8 0 1.46-.41 1.46-1.25 0-.42-.16-.75-.57-1 .32-.25.4-.5.4-.75 0-.84-.72-1.17-1.45-1.17h-2.27c-.16 0-.25.16-.25.25v3.67zm10.22 0c0 .17.16.25.24.25h.57c.16 0 .24-.08.24-.25V23.8c0-.17-.16-.25-.24-.25h-.57c-.16 0-.25.08-.25.25v3.6zm-3.25-2.5V23.7c0-.17-.08-.25-.24-.25h-.57c-.16 0-.24.08-.24.25v3.59c0 .17.08.25.24.25H138c.8 0 1.54-.5 1.54-1.34 0-.92-.73-1.33-1.54-1.33h-1.14zm1.22.83c.32 0 .49.17.49.59 0 .33-.17.58-.5.58h-1.13V25.8h1.14v-.09zm8.91 1.92c.17 0 .25-.08.25-.25V23.8c0-.17-.08-.25-.25-.25h-.8c-.17 0-.33.17-.41.25l-1.62 2.92V23.8c0-.17-.08-.25-.25-.25h-.48c-.16 0-.25.08-.25.25v3.6c0 .16.09.24.25.24h.97c.16 0 .32-.08.4-.25l1.46-2.67v2.67c0 .17.17.25.25.25h.48zm8.6 0c.16 0 .24-.08.24-.25v-.25c0-.16-.08-.25-.25-.25h-.32V23.8c0-.17-.16-.25-.24-.25h-.57c-.16 0-.24.08-.24.25v3.1h-1.87v-3.1c0-.17-.16-.25-.24-.25h-.57c-.16 0-.24.08-.24.25v3.68c0 .16.08.25.24.25h4.05v-.09zm5.26-4.17h-3.24c-.16 0-.24.08-.24.25v3.59c0 .17.08.25.24.25h3.24c.16 0 .24-.08.24-.25v-.25c0-.17-.08-.25-.24-.25h-2.43v-.84h2.1c.17 0 .25-.08.25-.25v-.25c0-.17-.08-.25-.24-.25h-2.11v-.83h2.43c.16 0 .24-.09.24-.26v-.25c.09-.33-.08-.41-.24-.41zm4.94 3.92c0 .17.09.25.25.25h.48c.17 0 .25-.08.25-.25V23.8c0-.17-.17-.25-.25-.25h-.48c-.16 0-.25.08-.25.25v1.25h-1.94v-1.33c0-.17-.08-.25-.24-.25h-.57c-.16 0-.24.08-.24.25v3.59c0 .17.08.25.24.25h.57c.16 0 .24-.08.24-.25v-1.42h1.94v1.5z" clip-rule="evenodd"/>
  <defs>
    <linearGradient id="paint0_linear" x1="16.27" x2="16.27" y1="36.21" y2="-.21" gradientUnits="userSpaceOnUse">
      <stop stop-color="#F79826"/>
      <stop offset="1" stop-color="#FCB729"/>
    </linearGradient>
    <linearGradient id="paint1_linear" x1="150.54" x2="150.54" y1="19.2" y2="9.1" gradientUnits="userSpaceOnUse">
      <stop stop-color="#F79826"/>
      <stop offset="1" stop-color="#FCB729"/>
    </linearGradient>
  </defs>
</svg>
