<svg xmlns="http://www.w3.org/2000/svg" fill="none" viewBox="0 0 263 114">
  <path fill="#E31E24" fill-rule="evenodd" d="M258.3 56.3c-.4-1.7-1.6-1.8-2.9-.8a71.8 71.8 0 0 0-13.3 18c4.1-.2 9.1-2.3 12.9-6.7 3-4 3.7-8 3.3-10.5zM238 81.9c-3.3 7.2-5.8 15.2-8 24.1-1.2 5.4-.8 7.5-2 8-2.1.5-7.5-3.4-7.1-12.2 0-5.2 3.7-16.8 8.3-26a19.8 19.8 0 0 1-.4-16.2c3.4-8.3 11.3-16.5 13-15.8.8.5.4 3-.9 6.1-1.7 3.2-9.2 12-7 18.8a58.6 58.6 0 0 1 18.3-20c5.8-2.9 10 1 10.4 6.8 1.3 18.2-14.2 28.5-24.6 26.4zM134 19c-2-3.3-13.7 2.5-19.6 11.6 3.8 1 8.4 1 11.7-.5 6.7-2.5 9.6-8.1 8-11zm-19.6-1.3c-2.9 1.2-7.5 5.8-6.2 9 0 .3 0 .4.4.7 2.5-4 6.2-7.9 10.4-10.5-1.7 0-2.9.4-4.6.8zm13.4 17.5a20.4 20.4 0 0 1-16.7 1c0 .8-.4 1.4-.8 2.1-.9 1-2.5 1.7-3.8 0-1.7-1.8-2-3.6-1.2-5.7-.9-1-1.7-1.8-2.1-2.6-2.1-5.8 1.6-12.4 7.9-16.2 6.2-4 14.2-4.3 17.5-3.5 1.7.3 3.8 1.3 4.2 3.2 3 .1 5 1 5.8 2.7 3 4.4-1.6 14.4-10.8 19zM227 52.3c-1.6.3-9.5.8-15.8 1-.4 1.3-1.3 3.1-2 5.1l10 .2c.8.1 1.6.6 1.6 1.5v3.2c0 .6-.4 1.2-1.7 1.3-.8.2-7 .3-12.5.3-1.2 3.4-2 6-2.5 6.6 0 .7.4 1 1.3 1 1.2 0 12-1.8 13.3-2 1.3 0 2.5.5 3.3 1.9.9 1.2.9 2.2 0 3.3a33 33 0 0 1-17 8c-4.2.2-9.7-3-9.2-9.7 0-2.5 1.2-5.9 2.5-9.4-.9-.6-1.3-4.2-.9-4.8.4-.3 1.7-.6 3.4-1 1.2-2.4 2-4.5 2.9-5.8-1.7-.4-3-.8-3.8-1.7-1.6-1.7-3.3-3.5-2-4.3 3.3-1.8 21.2-2.7 24.1-2.5 1.3 0 2.1.4 3 1 1.2 1.2 2.9 3.4 3.3 4.7.4 1 .4 1.8-1.3 2.1zm-35 21.1c-2 5.8-6.7 6-9.2 4-3.7-3.2-9.6-16.1-10.8-18-.4-1-1.3-1.1-1.7.2-.4 2-.8 14.9-1.2 16.7-.4 2-.9 4-3.8 3.7-2.5-.2-3.3-3-3.3-5.5-.9-9 1.6-20.8 4.1-26.3 1.7-2.8 3.8-2.7 5.9-.9 3.3 3.2 11.2 18 12.5 19.5.8.9 1.7 1 1.7-.7.4-6-4.6-24-4.6-25.6-.4-2 .8-3 2.5-1.8 8 5.8 12.5 22.6 8 34.7zM161.1 48c-.4 1-1.2 1.6-2.5 1.9-3.3.6-22.9.9-26.7 2.5-2 .7-1.6 1.9-.8 2.2 4.6 1.5 13 1.3 18 2.2 5.4 1 9.1 3.4 10 6.4a17 17 0 0 1-.9 10.3c-2.9 5.6-13.7 7.8-22.5 5.5-7-2-11.3-7.4-10.8-10.5 0-4.5 4.1-7.3 14.1-5.9 5 .6 10.5 2.6 10.5 4.3 0 1.5-3.4 3.4-9.6 2.4-3-.6-5.9-3.2-8.4-3-2 0-3.3 1.3-2.9 3 .4 3 6.3 4 12.5 3.6 5.4-.3 13-3.3 13-6.8 0-3.6-9.6-4.7-13-5.2-4.6-.6-12.9 0-16.2-2.2-1.7-1-1.7-3.4-1.3-5.3.4-2 .8-4.1 2.5-5.4 8.3-6.3 30-6 34.6-3.1 1.3.7.9 2 .4 3.1zm-43 31.6c-1.2 1.4-5.3.8-6.2-1-2-3.9-.8-28 1.3-33.9.4-2 2.5-2.4 3.7-.3 1.7 2 1.7 3.6 2.1 5.2 0 2.2 1.7 27.7-.8 30zM19.8 53.9c-2.5 1-2.5 2.4-.8 4.5 2.1 3.3 9.6 9.9 21.3 14.1 0-7.4.4-16 .8-22-9.6.3-16.7 1.4-21.3 3.4zm87.2 3.3c-.4 7.9-3.7 20-23.8 25.5a59.7 59.7 0 0 1-33.7-.3c0 2.1-.5 4-1.3 5-1.2 2-5.8.7-6.2-.6-.9-1.2-1.3-4.1-1.7-7.8a64.6 64.6 0 0 1-23.4-18.3 9.1 9.1 0 0 1-2-5.3c.4-1.4.8-2.8 2-3.8 3-3.7 14.6-7.9 24.6-9.3.5-6.8 1.7-18.3 3.8-18.8.8-.3 3 2.6 3.7 4.1.9 3 .9 9.9.9 14.3 13 .1 31.7 3.2 32.5 12.4.4 5.2-4.6 8.5-6.2 8.8-2.1.2-5.9-.9-5.9-2 0-1.3 5.4-2.4 5-4.7-.8-3.3-12.5-5.4-25.4-5.9 0 7.2-.4 18.8-.4 24.8 4.5.9 9.6 1.3 15.4 1.3 10-.3 30.9-3 32.1-20.2 1.3-19.7-30-39.4-53.4-46-22-6.1-35.9-3-38.4-1.9-.4.5-.4.8 0 1 .5 0 2.5.7 3.4 1 1.7.6 1.2 1.6.4 2-2 .6-8 .4-8.8-1.7C-.3 9.6.1 8 2.2 5.2A7 7 0 0 1 6 2.7c26.7-7.4 56.7 5.8 64.2 10 25 13.3 38 31.1 36.7 44.5z" clip-rule="evenodd"/>
</svg>
