<svg width="655" height="220" viewBox="0 0 655 220" fill="none" xmlns="http://www.w3.org/2000/svg">
<g filter="url(#filter0_d)">
<path d="M550.119 99.6573H114.761V97.8889H550.119V99.6573Z" fill="#FFD080"/>
<path d="M101.038 97.771V99.6101C86.7495 101.567 81.5622 113.875 65.34 133.116L59.3274 140.166L87.5748 175.251C97.0062 187.04 102.877 192.133 110.611 193.053V194.892H72.3665V193.053C76.4928 192.534 79.6051 192.793 79.6051 188.856C79.6051 186.498 77.766 184.942 76.6106 183.362L46.1941 144.363C50.226 140.566 78.2376 110.338 78.2376 103.406C78.2376 99.9874 75.1252 99.728 71.6591 99.6101V97.771H101.038ZM58.5258 97.771V99.6101H56.4508C46.9014 99.6101 46.1941 105.505 46.1941 109.419V183.244C46.1941 187.158 46.9014 193.053 56.4508 193.053H58.5258V194.892H20.2811V193.053H22.356C31.9054 193.053 32.6127 187.158 32.6127 183.244V109.419C32.6127 105.505 31.9054 99.6101 22.356 99.6101H20.2811V97.771H58.5258Z" fill="#FFD080"/>
<path d="M130.559 196C150.035 196 166.375 179.424 166.375 153.959C166.375 130.05 152.581 111.282 132.61 111.282C116.058 111.282 96.7941 125.17 96.7941 153.299C96.7941 176.43 110.588 196 130.559 196ZM131.148 191.214C118.133 191.214 109.409 175.864 109.409 153.181C109.409 127.174 121.057 116.045 132.021 116.045C141.122 116.045 153.76 125.17 153.76 154.077C153.76 179.754 142.49 191.214 131.148 191.214Z" fill="#FFD080"/>
<path d="M164.889 112.39V113.946H166.658C174.769 113.946 175.358 118.945 175.358 122.269V184.989C175.358 188.313 174.769 193.336 166.658 193.336H164.889V194.892H197.381V193.336H195.612C187.501 193.336 186.912 188.313 186.912 184.989V155.869C193.184 157.637 196.202 158.085 198.253 158.085C214.711 158.085 222.822 146.414 222.822 134.295C222.822 113.828 203.559 112.39 193.962 112.39H164.889ZM186.912 117.837C189.458 117.271 191.227 117.271 193.373 117.271C197.475 117.271 210.208 118.285 210.208 135.733C210.208 146.862 203.936 153.181 195.424 153.181C193.75 153.181 190.637 153.087 186.912 151.625V117.837Z" fill="#FFD080"/>
<path d="M258.945 196C278.421 196 294.761 179.424 294.761 153.959C294.761 130.05 280.944 111.282 260.996 111.282C244.444 111.282 225.18 125.17 225.18 153.299C225.18 176.43 238.974 196 258.945 196ZM259.511 191.214C246.495 191.214 237.795 175.864 237.795 153.181C237.795 127.174 249.443 116.045 260.407 116.045C269.508 116.045 282.123 125.17 282.123 154.077C282.123 179.754 270.876 191.214 259.511 191.214Z" fill="#FFD080"/>
<path d="M478.18 194.845V193.288C481.622 193.288 486.22 193.17 486.22 189.728C486.22 188.502 486.008 187.064 485.136 184.729L465.259 132.361L447.457 183.267C446.867 184.824 446.467 186.498 446.467 188.62C446.467 191.826 448.424 193.501 453.517 193.288V194.845H432.767V193.288C438.638 193.053 441.279 185.955 442.859 181.381L467.522 111.234H468.796L495.911 181.381C499.141 189.822 501.287 193.618 507.842 193.288V194.845H478.18Z" fill="#FFD080"/>
<path d="M390.161 112.39H357.669V113.946H359.414C367.549 113.946 368.138 118.945 368.138 122.269V184.989C368.138 188.313 367.549 193.336 359.414 193.336H357.669V194.892H389.571C415.319 194.892 417.866 178.528 417.866 170.983C417.866 157.755 408.858 146.508 389.571 146.508C386.93 146.508 382.71 146.956 379.692 147.286V122.269C379.692 118.945 380.281 113.946 388.392 113.946H390.161V112.39ZM379.692 152.191C381.743 151.625 384.195 151.177 386.624 151.177C400.724 151.177 406.218 161.528 406.218 171.879C406.218 180.98 399.851 190.2 387.52 190.2C384.879 190.2 382.427 189.775 379.692 188.761V152.191Z" fill="#FFD080"/>
<path d="M333.878 194.845V193.288C337.297 193.288 341.895 193.17 341.895 189.728C341.895 188.502 341.683 187.064 340.81 184.729L320.933 132.361L303.131 183.267C302.542 184.824 302.165 186.498 302.165 188.62C302.165 191.826 304.122 193.501 309.191 193.288V194.845H288.442V193.288C294.337 193.053 296.977 185.955 298.534 181.381L323.197 111.234H324.47L351.586 181.381C354.816 189.822 356.962 193.618 363.517 193.288V194.845H333.878Z" fill="#FFD080"/>
<path d="M558.442 129.508L556.98 129.72C554.74 119.063 550.237 117.954 544.248 117.954H524.3V148.843H542.88C546.7 148.843 550.826 147.734 551.015 137.077H552.382V165.631H551.015C550.826 154.973 546.7 153.865 542.88 153.865H524.3V189.327H544.248C554.151 189.327 559.621 185.885 563.252 173.86L564.525 174.308L559.244 194.892H502.277V193.336H504.046C512.157 193.336 512.746 188.313 512.746 184.989V122.269C512.746 118.945 512.157 113.946 504.046 113.946H502.277V112.39H557.57L558.442 129.508Z" fill="#FFD080"/>
<path d="M589.66 103.666C591.735 103.265 594.164 103.006 596.003 103.006C608.099 103.006 617.318 109.678 617.318 120.949C617.318 131.017 612.367 142.005 597.512 142.005C595.201 142.005 591.735 141.486 589.66 141.227V103.666ZM563.747 97.7711V99.6102H565.822C575.371 99.6102 576.079 105.505 576.079 109.419V183.244C576.079 187.158 575.371 193.053 565.822 193.053H563.747V194.892H604.42C626.302 194.892 634.719 180.745 634.719 167.918C634.719 155.893 626.985 145.801 614.324 144.764V143.962C624.58 142.665 630.899 132.974 630.899 121.986C630.899 97.5117 608.335 97.7711 599.351 97.7711H563.747ZM589.66 147.121C591.735 146.862 594.612 146.721 596.569 146.721C610.056 146.721 620.43 154.313 620.43 168.319C620.43 181.546 611.565 189.398 599.917 189.398C596.239 189.398 593.126 188.856 589.66 187.677V147.121Z" fill="#FFD080"/>
<path d="M254.206 53.6552C253.215 52.2169 253.31 51.3917 254.842 50.6843C257.742 49.3403 262.458 48.6565 268.589 48.4915C268.353 52.3584 268.07 57.9937 268.093 62.8274C260.548 60.0686 255.715 55.8245 254.206 53.6552ZM260.43 16H253.875C251.235 16.1886 248.57 16.613 245.953 17.3204C244.774 17.6505 244.185 18.0042 243.501 18.9709C242.18 20.7629 241.685 21.8004 242.063 22.5549C242.723 23.9696 246.495 24.0875 247.698 23.6867C248.405 23.4509 248.57 22.7907 247.604 22.437C246.849 22.1776 245.694 21.8475 245.387 21.7532C244.939 21.6117 245.01 21.3759 245.458 21.1166C246.849 20.3856 255.927 18.3579 270.357 22.3898C285.589 26.6812 306.055 39.508 305.159 52.3584C304.405 63.5111 290.611 65.2795 284.127 65.421C280.519 65.4917 277.195 65.1616 274.153 64.5486C274.2 60.7288 274.342 53.1365 274.413 48.5151C282.783 48.7509 290.493 50.1184 290.918 52.3584C291.201 53.8203 287.687 54.5276 287.617 55.4472C287.593 56.0603 290.187 56.7676 291.389 56.6261C292.592 56.5083 295.987 54.339 295.681 50.9201C295.162 44.9311 282.807 42.9033 274.483 42.8326C274.46 40.0031 274.389 35.4053 273.752 33.5897C273.399 32.5523 272.031 30.7367 271.418 30.8782C269.98 31.2083 269.178 38.6827 268.872 43.1627C262.552 44.0351 254.937 46.7702 252.862 49.1281C252.225 49.8591 251.777 50.7315 251.73 51.651C251.659 52.7828 252.178 53.9618 253.003 55.1171C256.186 59.5263 262.317 64.2892 268.188 67.0715C268.329 69.453 268.612 71.3157 269.131 72.1409C269.626 72.9898 272.456 73.7443 273.469 72.4711C273.988 71.7873 274.106 70.5848 274.153 69.2408C281.887 71.4807 289.079 71.4336 296.152 69.4766C309.073 65.8926 311.313 58.0173 311.714 52.83C312.351 44.1766 304.004 32.4344 287.687 23.7574C284.08 21.8475 272.927 16.8017 260.43 16V16Z" fill="#FFD080"/>
<path d="M319.448 47.8313C319.33 46.7702 319.236 45.7564 318.293 44.4124C317.349 43.092 316.123 43.3277 315.652 44.601C314.237 48.4679 313.624 64.1949 314.874 66.7886C315.345 67.8025 318.269 68.2269 319.071 67.3781C320.533 65.8454 319.637 49.2932 319.448 47.8313Z" fill="#FFD080"/>
<path d="M327.488 50.9909C326.97 50.8258 326.734 50.0477 327.866 49.6233C330.483 48.5858 343.286 48.3736 345.22 47.9728C346.233 47.737 346.634 47.3597 346.87 46.7467C347.106 46.1336 347.436 45.2377 346.658 44.7425C343.711 42.8798 329.445 42.5968 324.069 46.8174C323.079 47.6191 322.749 48.9159 322.466 50.2599C322.183 51.5803 322.207 53.1129 323.268 53.7496C325.602 55.1879 330.931 54.8342 333.996 55.235C336.189 55.518 342.319 56.2018 342.296 58.5125C342.272 60.8232 337.486 62.851 334.02 62.9924C329.964 63.1575 326.05 62.5916 325.649 60.611C325.461 59.5499 326.451 58.6539 327.559 58.6068C329.422 58.6068 331.119 60.2573 333.147 60.611C337.061 61.3419 339.301 60.0687 339.301 59.0076C339.301 57.9702 335.741 56.6969 332.534 56.2725C326.121 55.3765 323.409 57.1685 323.268 60.163C323.15 62.0964 325.649 65.6333 330.483 66.9301C336.118 68.4155 343.168 67.0951 345.055 63.3933C345.856 61.8135 346.186 58.7247 345.62 56.6969C345.054 54.7399 342.532 53.0658 339.065 52.5235C335.812 51.9812 330.412 52.0047 327.488 50.9909Z" fill="#FFD080"/>
<path d="M354.085 54.2211C353.684 53.5845 353.236 53.5373 353.071 54.4333C352.835 55.7066 352.505 64.077 352.246 65.3267C351.963 66.5292 351.515 67.8496 349.723 67.661C347.955 67.4959 347.554 65.7747 347.436 64.1006C347.082 58.2059 348.686 50.5664 350.336 47.0296C351.185 45.1669 352.812 45.214 354.062 46.4166C356.231 48.4915 361.347 58.088 362.173 59.0076C362.715 59.6206 363.281 59.6914 363.328 58.7011C363.469 54.6455 360.333 42.9505 360.216 41.9602C360.027 40.6398 360.876 40.0267 361.96 40.8048C367.195 44.5774 370.072 55.4708 367.053 63.4168C365.686 67.1423 362.786 67.2366 361.112 65.9162C358.518 63.8884 354.91 55.5179 354.085 54.2211Z" fill="#FFD080"/>
<path d="M390.679 48.2793C390.443 47.3833 389.477 46.0393 388.534 45.2377C387.991 44.7897 387.52 44.5775 386.624 44.5303C384.714 44.4596 372.972 45.0255 370.85 46.2516C370.119 46.6995 371.085 47.9256 372.123 48.9159C372.807 49.5997 373.679 49.9063 374.669 50.0949C374.221 50.9909 373.514 52.3584 372.783 53.9146C371.769 54.0797 371.015 54.2683 370.708 54.5513C370.378 54.8814 370.567 57.2157 371.133 57.7108C370.26 59.9036 369.576 62.0965 369.506 63.7705C369.341 68.109 372.712 70.2547 375.4 70.1368C379.008 69.9953 385.633 66.4349 386.694 64.8787C387.119 64.195 387.19 63.5348 386.624 62.6623C386.034 61.8135 385.398 61.5306 384.525 61.5777C383.676 61.6013 376.485 62.7802 375.683 62.8038C375.188 62.8274 375.023 62.5916 375.07 62.12C375.094 61.7664 375.754 59.9979 376.579 57.8523C380.092 57.8051 384.101 57.7108 384.62 57.6872C385.539 57.6165 385.751 57.1213 385.775 56.7205C385.798 56.3432 385.869 55.2115 385.869 54.6692C385.822 54.0561 385.398 53.7732 384.69 53.726C383.771 53.7024 381.036 53.6081 378.23 53.6317C378.725 52.3584 379.173 51.1559 379.55 50.2835C383.511 50.1892 388.887 49.8827 389.901 49.694C390.939 49.4583 390.868 48.9159 390.679 48.2793Z" fill="#FFD080"/>
<path d="M324.211 35.1696C322.065 36.0184 318.976 36.0656 316.477 35.4525C320.486 29.4871 327.866 25.8088 329.304 27.9781C330.483 29.7701 328.432 33.4483 324.211 35.1696ZM316.666 27.0349C317.491 26.7048 318.505 26.5633 319.472 26.5398C316.854 28.2374 314.473 30.7604 312.61 33.354C312.469 33.189 312.374 33.0239 312.304 32.8353C311.526 30.7604 314.732 27.813 316.666 27.0349ZM332.416 25.9975C331.803 25.0071 330.294 24.4177 328.455 24.2526C328.149 23.0973 326.805 22.4371 325.696 22.1777C323.692 21.7061 318.34 21.9183 314.331 24.4648C310.37 26.9878 307.8 31.2555 309.309 35.0517C309.498 35.5233 309.922 36.0892 310.559 36.6786C309.946 38.0698 310.394 39.2487 311.313 40.4512C312.186 41.583 313.223 41.1114 313.695 40.4512C313.978 40.0268 314.237 39.5552 314.473 39.1072C317.326 40.1918 321.122 40.4512 325.39 38.3763C331.308 35.4761 334.232 28.8976 332.416 25.9975Z" fill="#FFD080"/>
<path d="M407.986 59.1019C405.746 61.9549 402.469 63.2989 399.639 63.3932C402.587 58.1351 405.723 54.1268 408.458 51.7217C409.236 51.0379 410.061 51.1323 410.297 52.1933C410.65 53.8202 410.085 56.4375 407.986 59.1019ZM412.985 51.7689C412.702 47.9963 409.92 45.4026 406.218 47.2889C402.469 49.1988 397.753 54.7398 394.145 60.328C392.849 55.8952 397.824 50.1655 398.743 48.0906C399.592 46.1571 399.828 44.4123 399.309 44.1058C398.413 43.5871 393.037 48.963 391.057 54.3625C389.665 58.0408 389.571 62.0256 391.363 65.0201C388.345 70.8677 385.798 78.5543 385.704 81.8789C385.539 87.585 389.17 90.1786 390.491 89.7542C391.339 89.4477 391.009 88.1273 391.764 84.6376C393.014 78.8137 394.829 73.5321 396.904 68.9342C403.813 70.3253 413.904 63.6054 412.985 51.7689Z" fill="#FFD080"/>
</g>
<defs>
<filter id="filter0_d" x="0.281067" y="0" width="654.438" height="220" filterUnits="userSpaceOnUse" color-interpolation-filters="sRGB">
<feFlood flood-opacity="0" result="BackgroundImageFix"/>
<feColorMatrix in="SourceAlpha" type="matrix" values="0 0 0 0 0 0 0 0 0 0 0 0 0 0 0 0 0 0 127 0"/>
<feOffset dy="4"/>
<feGaussianBlur stdDeviation="10"/>
<feColorMatrix type="matrix" values="0 0 0 0 0 0 0 0 0 0 0 0 0 0 0 0 0 0 0.6 0"/>
<feBlend mode="multiply" in2="BackgroundImageFix" result="effect1_dropShadow"/>
<feBlend mode="normal" in="SourceGraphic" in2="effect1_dropShadow" result="shape"/>
</filter>
</defs>
</svg>
