<svg xmlns="http://www.w3.org/2000/svg" fill="none" viewBox="0 0 406 201">
  <path fill="#000" fill-opacity=".1" d="M401.7 181l-78.2-4.2-77.8 14.1-77.9-4.3-77.7 14.1-77.6-4.3L9 165.3l2.8-36.8L6.6 93l2.7-36.8-3.6-40.2 80.1 8.4 79.7-10 79.8 8.4L325 13l79.3 8.4L406 49l-4.6 31.5 3.3 32.4-4.7 31.6 1.7 36.6z"/>
  <path fill="#fff" d="M396.2 168.2l-78.3-4.3-77.7 14.1-78-4.3-77.6 14.2L7 183.5l-3.5-31.1 2.7-36.8L1 80.3l2.8-36.9L.2 3.2l80.1 8.4 79.7-10 79.7 8.4 79.7-10 79.4 8.4 1.7 27.6-4.7 31.5 3.3 32.4-4.6 31.6 1.7 36.7z"/>
  <path fill="#F4901D" d="M390.4 154.2l-47 .8-23.8.2h-3c-1 0-2 0-3 .2l-5.8 1-11.8 1.9-47.1 7.3-5.9.9-3 .4-.7.1h-2.2l-11.8-.1-23.6-.3-23.5-.4-11.9-.2h-2.9l-3 .4-5.8.8-47.1 6.2-11.8 1.5-5.9.7-1.5.2H87l-3-.2-23.6-.8-47.2-1.6-1.5-.1-.3-3.4L8.9 143v-1.4l1.8-30.2v1.5L7.3 83.4V82L9 51.7v1L6.7 19.8l-.2-3.4h1.4l48 4L80 22.3l3 .2c1 0 2 .2 3 0l6-.5 12-1.2c16-1.6 32-3.3 48.1-5.2l6-.8 3-.3.8-.1h2.2l12 .5 24 .8 24.1 1 12 .5c1 0 2 .2 3 0l3-.3 6-.6 24-2.3 24.1-2.2 12-1 6-.6h3l3 .3 24.1 1.8 24 2 12 1 12.1 1.1 1.1.1.1 2.5.8 24.1v.9l-3.3 26.5v-1l1.9 27.4v.7l-3.4 26.5v-.3l.7 30.4zm-.3-.7c-.5-10-1-19.9-1.3-29.6v-.4l2.9-26.8v.8l-2.3-27.2v-.9l3-26.8v1l-1.1-24 1.2 2.5-12-.4-12-.5-24.1-1-24-1.2-3-.1h-3l-6 .7-12 1.2-24 2.4-24.1 2.2-6 .5-3 .2-3-.1-12-1-24.1-2-24-2.3-12-1-1.6-.2h-1.5l-3 .2-6 .4c-16 1-32 2.4-48 3.9L92 25l-6 .6c-1 .2-2 0-3 0l-3-.2L56 24.2l-48.1-2L9 19l2.6 32.6v1l-1.5 30.3v-1.4l3.7 29.4v1.5l-1.5 30.4v-1.4L15 168l-1.8-3.4 47.2.6 23.5.3h3l1.4.1 1.5-.2 6-.8 11.7-1.8c15.7-2.3 31.4-4.4 47-6.5l6-.9 2.9-.3h3l11.8.3 23.5.8 23.6.8 11.8.5h3l3-.4 5.8-.7 47-5.4 11.9-1.3 5.8-.7c1-.2 2 0 3 0l2.9.2 23.4 1.3 47.3 3z"/>
</svg>
